<?xml version="1.0" encoding="utf-8"?>
<svg width="1000px" height="1000px" viewBox="0 0 1000 1000" version="1.1" xmlns:xlink="http://www.w3.org/1999/xlink" xmlns="http://www.w3.org/2000/svg">
  <defs>
    <path d="M1000 0L1000 0L1000 1000L0 1000L0 0L1000 0Z" id="path_1" />
    <clipPath id="clip_1">
      <use xlink:href="#path_1" />
    </clipPath>
  </defs>
  <g id="VarsovieUSB_Logo" clip-path="url(#clip_1)">
    <path d="M1000 0L1000 0L1000 1000L0 1000L0 0L1000 0Z" id="VarsovieUSB_Logo" fill="#FFFFFF" fill-opacity="0" stroke="none" />
    <g id="Vusb" transform="translate(32 234.01556)">
      <path d="M933.563 9.74913C933.563 15.128 930.426 17.8174 924.151 17.8174L918.435 17.8174C906.109 16.4727 896.024 15.8003 888.18 15.8003C830.357 15.8003 762.225 41.0136 683.784 91.4401C646.132 115.869 614.195 140.634 587.974 165.735C562.648 190.388 515.135 242.272 445.435 321.385C363.183 415.066 301.215 477.035 259.529 507.291C237.565 523.428 225.463 531.496 223.222 531.496C221.877 531.496 221.204 530.879 221.204 529.647C221.204 529.423 223.67 525.947 228.6 519.22C268.269 467.88 302.279 407.01 330.63 336.613C358.981 266.215 373.156 207.477 373.156 160.398C373.156 84.6185 342.452 46.7286 281.044 46.7286C256.839 46.7286 228.937 55.021 197.336 71.6057C165.735 88.1904 136.936 109.706 110.938 136.152C82.6995 165.063 60.1197 197.28 43.1987 232.803C26.2778 268.325 17.8174 301.551 17.8174 332.479C17.8174 360.27 25.3253 382.233 40.3412 398.37C55.3571 414.506 75.6398 422.574 101.189 422.574C150.943 422.574 199.353 390.75 246.418 327.1C280.035 281.604 296.844 240.927 296.844 205.068C296.844 188.931 292.866 176.101 284.91 166.576C276.954 157.051 266.252 152.288 252.805 152.288C245.185 152.288 237.621 154.025 230.113 157.499C222.605 160.973 218.851 164.503 218.851 168.088C218.851 169.433 219.636 170.106 221.204 170.106L223.894 170.106C230.169 169.209 233.643 168.761 234.315 168.761C244.401 168.761 249.443 174.252 249.443 185.234C249.443 192.181 246.754 198.176 241.375 203.219C235.996 208.262 229.721 210.783 222.549 210.783C208.654 210.783 201.706 203.611 201.706 189.268C201.706 177.614 206.749 167.472 216.834 158.844C226.919 150.215 238.91 145.901 252.805 145.901C267.821 145.901 279.923 151.224 289.112 161.869C298.301 172.515 302.895 186.466 302.895 203.723C302.895 247.65 281.174 295.836 237.73 348.279C193.393 401.619 147.711 428.289 100.685 428.289C71.0524 428.289 46.8634 417.98 28.1181 397.361C9.37268 376.742 -9.11938e-06 350.072 0 317.351C0 255.046 31.2828 193.47 93.8485 132.622C156.414 71.7738 219.541 41.3498 283.229 41.3498C321.056 41.3498 351.72 54.5211 375.221 80.8637C398.722 107.206 410.472 141.79 410.472 184.614C410.472 230.348 397.585 278.438 371.812 328.884C346.038 379.329 304.464 437.958 247.09 504.77C244.849 507.459 243.728 509.028 243.728 509.476L244.401 510.485C248.211 510.485 262.218 500.06 286.423 479.21C305.025 463.518 324.299 444.799 344.245 423.052C362.175 403.547 409.464 350.19 486.112 262.98C531.384 211.415 571.277 170.78 605.791 141.074C640.305 111.367 678.965 84.2964 721.772 59.8605C791.473 19.9535 852.881 2.73582e-05 905.997 0C924.375 0 933.563 3.24971 933.563 9.74913L933.563 9.74913Z" id="Path" fill="#FF4D4D" fill-rule="evenodd" stroke="none" />
      <path d="M622.506 418.895C622.506 424.057 606.24 445.828 573.708 484.208C546.783 516.082 525.467 532.019 509.761 532.019C499.886 532.019 491.527 528.041 484.684 520.084C477.842 512.128 474.42 502.547 474.42 491.341C474.42 482.601 478.791 470.386 487.531 454.698L480.808 463.775C460.189 490.221 445.061 507.926 435.424 516.891C424.89 526.976 414.917 532.019 405.504 532.019C395.643 532.019 387.351 528.153 380.627 520.421C373.904 512.689 370.542 503.22 370.542 492.014C370.542 479.015 375.584 464.111 385.67 447.302L446.854 344.432C454.474 346.001 460.413 346.785 464.671 346.785C468.93 346.785 476.55 346.001 487.531 344.432L407.521 476.213C399.453 489.66 395.419 501.539 395.419 511.848C395.419 521.933 399.677 526.976 408.194 526.976C430.829 526.976 467.137 484.73 517.115 400.237L550.06 344.432C557.008 346.001 562.835 346.785 567.542 346.785C573.144 346.785 581.101 346.001 591.41 344.432L537.622 432.174C512.072 473.86 499.298 500.642 499.298 512.521C499.298 522.158 503.899 526.976 513.102 526.976C531.056 526.976 560.231 498.693 600.629 442.128L611.066 427.652L617.122 420.24C618.246 417.999 619.369 416.878 620.489 416.878C621.834 416.878 622.506 417.551 622.506 418.895L622.506 418.895ZM735.966 288.459C735.966 297.395 721.959 315.157 693.944 341.743C692.599 348.69 691.927 354.741 691.927 359.896C691.927 372.895 697.866 393.514 709.744 421.753C715.796 435.872 718.821 447.75 718.821 457.387C718.821 477.558 709.016 495.039 689.406 509.831C669.795 524.623 646.543 532.019 619.649 532.019C604.409 532.019 592.25 527.704 583.174 519.076C574.097 510.447 569.558 498.849 569.558 484.282C569.558 467.473 575.554 451.112 587.544 435.2C599.534 419.287 611.917 411.331 624.692 411.331C626.933 411.331 628.95 411.779 630.743 412.676L657.637 379.731C665.705 370.094 676.463 356.758 689.91 339.726C693.72 324.037 699.547 310.59 707.391 299.384C715.235 288.178 722.967 282.575 730.587 282.575C734.173 282.575 735.966 284.536 735.966 288.459L735.966 288.459ZM689.238 421.08C689.238 414.357 689.013 407.689 688.565 401.078C688.117 394.466 687.893 384.997 687.893 372.671C687.893 362.586 688.341 354.181 689.238 347.458C676.687 363.37 658.533 385.782 634.777 414.693C639.035 418.279 641.164 422.649 641.164 427.804C641.164 441.027 630.295 449.992 608.555 454.698C599.814 456.715 592.25 461.478 585.863 468.986C579.476 476.494 576.282 484.394 576.282 492.686C576.282 501.651 579.532 509.159 586.031 515.21C592.531 521.261 600.599 524.287 610.236 524.287C629.062 524.287 646.935 513.361 663.856 491.509C680.777 469.658 689.238 446.182 689.238 421.08L689.238 421.08ZM937 184.748L786.057 423.097C809.589 390.824 827.182 369.197 838.836 358.215C850.49 347.234 861.584 341.743 872.118 341.743C884.668 341.743 894.922 346.841 902.878 357.039C910.834 367.236 914.812 380.067 914.812 395.531C914.812 429.373 893.297 462.654 850.266 495.375C818.217 519.804 789.754 532.019 764.877 532.019C753.223 532.019 743.754 527.592 736.47 518.74C729.187 509.887 725.545 498.401 725.545 484.282C725.545 467.473 736.302 441.811 757.818 407.297L896.995 184.076C903.046 185.869 909.546 186.765 916.493 186.765C921.872 186.765 928.708 186.093 937 184.748L937 184.748ZM890.271 369.309C890.271 354.293 883.996 346.785 871.445 346.785C855.085 346.785 827.182 373.791 787.737 427.804C758.154 468.145 743.362 495.263 743.362 509.159C743.362 521.037 749.189 526.976 760.843 526.976C781.014 526.976 807.628 506.862 840.685 466.632C873.743 426.403 890.271 393.962 890.271 369.309L890.271 369.309Z" id="Path" fill="#FF4D4D" stroke="none" />
    </g>
  </g>
</svg>